<?xml version="1.0" encoding="utf-8"?>
<!-- Generator: Adobe Illustrator 23.0.2, SVG Export Plug-In . SVG Version: 6.00 Build 0)  -->
<svg version="1.1" id="Layer_1" xmlns="http://www.w3.org/2000/svg" xmlns:xlink="http://www.w3.org/1999/xlink" x="0px" y="0px"
	 viewBox="0 0 57 68" style="enable-background:new 0 0 57 68;" xml:space="preserve">
<style type="text/css">
	.st0{fill:url(#SVGID_1_);}
	.st1{opacity:0.1;fill:#FFFFFF;enable-background:new    ;}
	.st2{fill:url(#SVGID_2_);}
	.st3{fill:url(#SVGID_3_);}
	.st4{fill:url(#SVGID_4_);}
</style>
<linearGradient id="SVGID_1_" gradientUnits="userSpaceOnUse" x1="54.556" y1="41.1954" x2="2.6373" y2="40.3247" gradientTransform="matrix(1 0 0 -1 0 70)">
	<stop  offset="0.3038" style="stop-color:#003CBF"/>
	<stop  offset="0.4623" style="stop-color:#0049D4"/>
	<stop  offset="0.6168" style="stop-color:#0050E9"/>
	<stop  offset="0.7749" style="stop-color:#1565FF"/>
</linearGradient>
<path class="st0" d="M3.1,56.5L55,57.3L45.9,3.8c0,0,0,0,0-0.1c0-1.4-8-2.7-17.8-2.9c-9.7-0.1-17.6,0.9-17.7,2.3l0,0L3.1,56.5z"/>
<path class="st1" d="M3.1,56.5L55,57.3L45.9,3.8c0,0,0,0,0-0.1c0-1.4-8-2.7-17.8-2.9c-9.7-0.1-17.6,0.9-17.7,2.3l0,0L3.1,56.5z"/>
<linearGradient id="SVGID_2_" gradientUnits="userSpaceOnUse" x1="54.4509" y1="8.3143" x2="3.3892" y2="7.6225" gradientTransform="matrix(1 0 0 -1 0 70)">
	<stop  offset="0" style="stop-color:#EFF0F1"/>
	<stop  offset="0.2932" style="stop-color:#BFCDDA"/>
	<stop  offset="0.5211" style="stop-color:#F2F2F2"/>
	<stop  offset="0.7174" style="stop-color:#F9F9F9"/>
	<stop  offset="0.8979" style="stop-color:#F3F3F3"/>
	<stop  offset="0.9587" style="stop-color:#D2E5F9"/>
	<stop  offset="1" style="stop-color:#ADCFF0"/>
</linearGradient>
<path class="st2" d="M4.9,65.1c0.2,1,1,1.7,2,1.7l44.7-0.1c1,0,1.8-0.7,1.9-1.7l0.6-4.6c0.1-1.2-0.8-2.3-2-2.3L5.7,57.4
	c-1.3,0-2.2,1.1-1.9,2.3L4.9,65.1z"/>
<linearGradient id="SVGID_3_" gradientUnits="userSpaceOnUse" x1="28.918" y1="14.7092" x2="28.9251" y2="11.8265" gradientTransform="matrix(1 0 0 -1 0 70)">
	<stop  offset="0" style="stop-color:#ECECEC"/>
	<stop  offset="1" style="stop-color:#BDBDD8"/>
</linearGradient>
<path class="st3" d="M3.2,58.2l51.5-0.1c0.9,0,1.7-0.6,2.1-1.5l0,0c0.3-0.7-0.2-1.4-0.9-1.4l-54,0.1c-0.7,0-1.1,0.7-0.9,1.4
	C1.4,57.6,2.3,58.2,3.2,58.2z"/>
<linearGradient id="SVGID_4_" gradientUnits="userSpaceOnUse" x1="28.9073" y1="12.1451" x2="28.9163" y2="9.3851" gradientTransform="matrix(1 0 0 -1 0 70)">
	<stop  offset="0" style="stop-color:#ECECEC"/>
	<stop  offset="1" style="stop-color:#B3B8D1"/>
</linearGradient>
<path class="st4" d="M2.9,60.7L55,60.5c1,0,1.6-1.1,1.1-1.9l-0.4-0.8L2.1,57.9l-0.4,0.8C1.2,59.6,1.9,60.7,2.9,60.7z"/>
</svg>
